Coordinates
version=1
nRows=13
nColumns=34
inDegrees=yes

Units are S.I. units (second, meters, Newtons, ...)
If the header above contains a line with 'inDegrees', this indicates whether rotational values are in degrees (yes) or radians (no).

endheader
time	pelvis_tilt	pelvis_list	pelvis_rotation	pelvis_tx	pelvis_ty	pelvis_tz	hip_flexion_r	hip_adduction_r	hip_rotation_r	knee_angle_r	ankle_angle_r	subtalar_angle_r	mtp_angle_r	hip_flexion_l	hip_adduction_l	hip_rotation_l	knee_angle_l	ankle_angle_l	subtalar_angle_l	mtp_angle_l	lumbar_extension	lumbar_bending	lumbar_rotation	arm_flex_r	arm_add_r	arm_rot_r	elbow_flex_r	pro_sup_r	arm_flex_l	arm_add_l	arm_rot_l	elbow_flex_l	pro_sup_l
      1.26666670	    -10.16652998	     -4.57402376	     11.00028739	     -0.36712374	      1.18058693	      0.22455402	      5.60485576	      3.01662605	     -1.64529850	      0.00000000	      5.93506231	     -3.48118713	      0.00000000	      5.19163955	     -4.32843431	     -8.36257998	      0.00000000	      6.12509840	     10.43543591	      0.00000000	      9.23507212	      3.26110273	      1.88632129	     -4.77980641	    -10.76222241	      5.24486653	     34.09659442	     67.89245276	      4.54510454	    -14.37583405	     41.12163721	     38.17648473	     74.49588515
      1.28333330	    -10.22913568	     -4.56307999	     10.97718381	     -0.36659584	      1.18166753	      0.22537534	      5.65398609	      3.02852551	     -1.58870336	      0.00000000	      6.00304032	     -3.48433880	      0.00000000	      5.25559141	     -4.33972251	     -8.27150296	      0.00000000	      6.07919622	     10.49823648	      0.00000000	      9.13601735	      3.27707303	      1.81326333	     -4.95909539	    -10.72658082	      5.23520780	     34.12834209	     67.86855940	      4.55140910	    -14.47324624	     41.13519022	     38.25111175	     74.49859392
      1.30000000	    -10.26452789	     -4.55151916	     11.12148619	     -0.36536501	      1.18291095	      0.22568697	      5.65752266	      3.04031371	     -1.50418542	      0.00000000	      6.04526664	     -3.45510372	      0.00000000	      5.32548867	     -4.33265587	     -8.25318557	      0.00000000	      6.05789469	     10.51200092	      0.00000000	      9.09842128	      3.28485759	      1.84056246	     -5.02481121	    -10.69523559	      5.23097795	     34.16953313	     67.85621855	      4.51258073	    -14.54707340	     41.14128822	     38.29365841	     74.49990832
      1.31666670	    -10.37733725	     -4.51538091	     11.15209761	     -0.36578466	      1.18494771	      0.22615454	      5.79592662	      3.01498851	     -1.42478281	      0.00000000	      6.17254522	     -3.43702036	      0.00000000	      5.41435158	     -4.31859846	     -8.22309685	      0.00000000	      5.98134942	     10.54029776	      0.00000000	      8.91266559	      3.27539028	      1.80701422	     -5.29916459	    -10.61639321	      5.22897492	     34.21991273	     67.83170438	      4.44577905	    -14.71872311	     41.14508023	     38.39105838	     74.50271152
      1.33333330	    -10.41296502	     -4.49658258	     11.16276417	     -0.36396327	      1.18398498	      0.22639957	      5.78856406	      3.01785103	     -1.42300437	      0.00000000	      6.17278642	     -3.43369947	      0.00000000	      5.40389458	     -4.32798376	     -8.22287404	      0.00000000	      5.97168363	     10.54134304	      0.00000000	      8.90487397	      3.27380592	      1.81128161	     -5.30742733	    -10.61532396	      5.22774794	     34.22612616	     67.83025006	      4.44018245	    -14.72664672	     41.14536012	     38.39841468	     74.50292435
      1.35000000	    -10.72171729	     -4.42523782	     11.16337712	     -0.36286540	      1.18524810	      0.22691541	      6.04815424	      2.93396077	     -1.63700377	      0.00000000	      6.48053824	     -2.93121400	      0.00000000	      5.64727827	     -4.21079133	     -8.28145723	      0.00000000	      5.49918985	     10.52238656	      0.00000000	      8.58347240	      3.15051442	      2.43922704	     -7.58407660	    -10.68918354	      3.71169530	     38.25841767	     66.86691325	      3.56243785	    -16.09148495	     41.03523426	     42.46087061	     74.65318358
      1.36666670	    -10.79098592	     -4.40773756	     11.05623225	     -0.36218626	      1.18448813	      0.22817740	      6.10418010	      2.95874388	     -1.71024011	      0.00000000	      6.43943269	     -2.94261019	      0.00000000	      5.62646255	     -4.24381155	     -8.32146274	      0.00000000	      5.45739727	     10.50323326	      0.00000000	      8.45738858	      3.08349409	      2.44880732	     -7.72790842	    -10.67455686	      3.69999974	     38.21882857	     66.85379525	      3.43962389	    -16.14573008	     41.04162662	     42.40255284	     74.65436930
      1.38333330	    -10.89069258	     -4.36845505	     11.00946996	     -0.36277860	      1.18663427	      0.22934168	      6.17691685	      2.93635407	     -1.82456251	      0.00000000	      6.33736236	     -2.93236876	      0.00000000	      5.66273015	     -4.21126104	     -8.40846290	      0.00000000	      5.33415318	     10.47135156	      0.00000000	      8.25467930	      3.08363127	      2.55741950	     -7.94092059	    -10.63713652	      3.69148232	     38.16344857	     66.83679373	      3.17823927	    -16.28369250	     41.04707470	     42.29355444	     74.65576667
      1.40000000	    -10.96544401	     -4.33053647	     10.90093502	     -0.36287355	      1.18872899	      0.23049424	      6.25952661	      2.93841456	     -1.91917313	      0.00000000	      6.23572319	     -2.89863404	      0.00000000	      5.70331286	     -4.21727591	     -8.50382338	      0.00000000	      5.18936830	     10.43187266	      0.00000000	      8.08089022	      2.98932569	      2.62255395	     -8.16599202	    -10.62055825	      3.67913949	     38.11144587	     66.82121531	      2.97079481	    -16.38633720	     41.04283773	     42.21002642	     74.65738396
      1.41666670	    -11.05035148	     -4.27096893	     10.92731331	     -0.36355479	      1.18661063	      0.23117798	      6.31103028	      2.90445511	     -1.93867692	      0.00000000	      6.14835357	     -2.82562716	      0.00000000	      5.82332784	     -4.17777855	     -8.57533385	      0.00000000	      5.07387759	     10.39348320	      0.00000000	      7.89718730	      2.95605583	      2.76896166	     -8.32465637	    -10.61538372	      3.66863996	     38.07977906	     66.80791355	      2.74564299	    -16.50895181	     41.03313506	     42.12547479	     74.65877597
      1.43333330	    -11.17838155	     -4.19436804	     10.68037352	     -0.36497687	      1.18462461	      0.23360595	      6.48806916	      2.90355602	     -2.02679164	      0.00000000	      6.11627332	     -2.74063173	      0.00000000	      5.96335780	     -4.14256640	     -8.63993175	      0.00000000	      4.93656719	     10.33281590	      0.00000000	      7.67893603	      2.84802725	      3.01273795	     -8.52752195	    -10.63811015	      3.64231702	     38.07137647	     66.78588666	      2.48862906	    -16.69182982	     40.97238709	     42.04292611	     74.65978934
      1.45000000	    -11.25776095	     -4.14234542	     10.46582962	     -0.36741567	      1.18595777	      0.23469441	      6.58709197	      2.91381852	     -2.11499506	      0.00000000	      6.12436258	     -2.73829712	      0.00000000	      6.10344422	     -4.13423732	     -8.65433211	      0.00000000	      4.94117836	     10.28814058	      0.00000000	      7.49582142	      2.80583222	      3.12657359	     -8.64096391	    -10.66996301	      3.62852815	     38.05609719	     66.77580783	      2.35065704	    -16.77944783	     40.94052906	     42.00057911	     74.66017112
      1.46666670	    -11.39476257	     -4.09324678	     10.35443777	     -0.36652612	      1.18262405	      0.23409277	      6.75633029	      2.90021375	     -2.18697218	      0.00000000	      6.10969001	     -2.70868218	      0.00000000	      6.29053129	     -4.09619985	     -8.68224169	      0.00000000	      4.96407725	     10.21112007	      0.00000000	      7.17522939	      2.75931551	      3.36190830	     -8.81004166	    -10.75927641	      3.60607374	     38.02949335	     66.76277247	      2.05011171	    -16.94570543	     40.90165158	     41.91749282	     74.66035839
